#define a6bf6e87f3894414897eff649aa73b9fcqLk8ClOS7NCsn75_width 12
#define a6bf6e87f3894414897eff649aa73b9fcqLk8ClOS7NCsn75_height 12
static char a6bf6e87f3894414897eff649aa73b9fcqLk8ClOS7NCsn75_bits[] = {
  0x00, 0x00, 0x06, 0x06, 0x0E, 0x07, 0x9C, 0x03, 0xF8, 0x01, 0xF0, 0x00, 
  0xF0, 0x00, 0xF8, 0x01, 0x9C, 0x03, 0x0E, 0x07, 0x06, 0x06, 0x00, 0x00, 
  };
