#define 179fa073bd404d2c84b792dbd470f553GjvCg0yKg2XBHojr_width 12
#define 179fa073bd404d2c84b792dbd470f553GjvCg0yKg2XBHojr_height 12
static char 179fa073bd404d2c84b792dbd470f553GjvCg0yKg2XBHojr_bits[] = {
  0x00, 0x00, 0x00, 0x00, 0x00, 0x00, 0x00, 0x00, 0x00, 0x00, 0x00, 0x00, 
  0x00, 0x00, 0x00, 0x00, 0x00, 0x00, 0xFE, 0x07, 0xFE, 0x07, 0x00, 0x00, 
  };
