#define 856bb5446efb4660e3092277d6d3fd7aF8qJmf1DslWgrd8n_width 12
#define 856bb5446efb4660e3092277d6d3fd7aF8qJmf1DslWgrd8n_height 12
static char 856bb5446efb4660e3092277d6d3fd7aF8qJmf1DslWgrd8n_bits[] = {
  0x00, 0x00, 0x00, 0x00, 0x00, 0x00, 0x00, 0x00, 0x00, 0x00, 0xFF, 0x0F, 
  0xFF, 0x0F, 0x00, 0x00, 0x00, 0x00, 0x00, 0x00, 0x00, 0x00, 0x00, 0x00, 
  };
