#define 218678fae56d4a90e398a86d77cbb84c6etRQmsHVg1Bb9B2_width 12
#define 218678fae56d4a90e398a86d77cbb84c6etRQmsHVg1Bb9B2_height 12
static char 218678fae56d4a90e398a86d77cbb84c6etRQmsHVg1Bb9B2_bits[] = {
  0x60, 0x00, 0x60, 0x00, 0x60, 0x00, 0x60, 0x00, 0x60, 0x00, 0x60, 0x00, 
  0x60, 0x00, 0x60, 0x00, 0x60, 0x00, 0x60, 0x00, 0x60, 0x00, 0x60, 0x00, 
  };
